<svg width="40" height="41" viewBox="0 0 40 41" fill="none" xmlns="http://www.w3.org/2000/svg">
<path d="M22.0549 11.4158C22.5302 10.9213 23.3 10.9213 23.7748 11.4158C24.2502 11.9098 24.2502 12.7111 23.7748 13.2051L16.7632 20.4995L23.7753 27.7938C24.2507 28.2879 24.2507 29.0891 23.7753 29.5831C23.5379 29.8302 23.2265 29.9537 22.9151 29.9537C22.6037 29.9537 22.2928 29.8302 22.0549 29.5831L14.183 21.3939C13.9548 21.1565 13.8269 20.8351 13.8269 20.499C13.8269 20.1629 13.9553 19.8415 14.183 19.6041L22.0549 11.4158Z" fill="#0F8DA6"/>
<path d="M19.705 0C30.5706 0 39.4102 9.19603 39.4102 20.5003C39.4102 31.804 30.5706 41 19.705 41C8.83937 41 -0.000240326 31.804 -0.000240326 20.5003C-0.000240326 9.19603 8.83937 0 19.705 0ZM19.705 38.4692C29.2291 38.4692 36.9774 30.4085 36.9774 20.5003C36.9774 10.592 29.2291 2.53083 19.705 2.53083C10.1808 2.53083 2.4325 10.5915 2.4325 20.5003C2.4325 30.409 10.1808 38.4692 19.705 38.4692Z" fill="#0F8DA6"/>
</svg>
