<svg width="40" height="41" viewBox="0 0 40 41" fill="none" xmlns="http://www.w3.org/2000/svg">
<path d="M17.9451 11.4158C17.4698 10.9213 16.7 10.9213 16.2252 11.4158C15.7498 11.9098 15.7498 12.7111 16.2252 13.2051L23.2368 20.4995L16.2247 27.7938C15.7493 28.2879 15.7493 29.0891 16.2247 29.5831C16.4621 29.8302 16.7735 29.9537 17.0849 29.9537C17.3963 29.9537 17.7072 29.8302 17.9451 29.5831L25.817 21.3939C26.0452 21.1565 26.1731 20.8351 26.1731 20.499C26.1731 20.1629 26.0447 19.8415 25.817 19.6041L17.9451 11.4158Z" fill="#0F8DA6"/>
<path d="M20.295 0C9.42945 0 0.589844 9.19603 0.589844 20.5003C0.589844 31.804 9.42945 41 20.295 41C31.1606 41 40.0002 31.804 40.0002 20.5003C40.0002 9.19603 31.1606 0 20.295 0ZM20.295 38.4692C10.7709 38.4692 3.02258 30.4085 3.02258 20.5003C3.02258 10.592 10.7709 2.53083 20.295 2.53083C29.8192 2.53083 37.5675 10.5915 37.5675 20.5003C37.5675 30.409 29.8192 38.4692 20.295 38.4692Z" fill="#0F8DA6"/>
</svg>
